<svg xmlns="http://www.w3.org/2000/svg" xmlns:xlink="http://www.w3.org/1999/xlink" viewBox="0,0,256,256" width="96px" height="96px" fill-rule="nonzero"><g fill="#ffffff" fill-rule="nonzero" stroke="none" stroke-width="1" stroke-linecap="butt" stroke-linejoin="miter" stroke-miterlimit="10" stroke-dasharray="" stroke-dashoffset="0" font-family="none" font-weight="none" font-size="none" text-anchor="none" style="mix-blend-mode: normal"><g transform="scale(10.66667,10.66667)"><path d="M4.76953,4.4043c-1.36799,-0.11039 -2.76953,0.94066 -2.76953,2.4668v9.12891c0,2.19733 1.80267,4 4,4h12c2.19733,0 4,-1.80267 4,-4v-9.11133c0,-2.03051 -2.48074,-3.22006 -4.06445,-1.94922l-0.93555,0.75l-1.38086,1.10742l-3.63477,2.91797l-5.91016,-4.78711h-0.00195c-0.39543,-0.32005 -0.84674,-0.48664 -1.30273,-0.52344zM4.52734,6.34375c0.09392,0.01644 0.19203,0.06172 0.28711,0.13867l5.57422,4.51563l-0.82227,0.66016c-0.367,0.294 -0.88791,0.29305 -1.25391,-0.00195l-4.3125,-3.48242v-1.30273c0,-0.24458 0.10945,-0.41963 0.26563,-0.49414c0.07809,-0.03725 0.1678,-0.04965 0.26172,-0.0332zM19.47461,6.36133c0.28199,-0.0473 0.52539,0.16173 0.52539,0.52734v9.11133c0,1.11667 -0.88333,2 -2,2h-1v-9.74609l2.1875,-1.75586c0.09507,-0.07629 0.19311,-0.12095 0.28711,-0.13672z"></path></g></g></svg>